<svg xmlns="http://www.w3.org/2000/svg" width="60" height="63.001" viewBox="0 0 60 63.001">
  <g id="Vector_Smart_Object" data-name="Vector Smart Object" transform="translate(-60 -32.999)">
    <g id="Vector_Smart_Object-2" data-name="Vector Smart Object" transform="translate(-107.193 -125.14)">
      <g id="Сгруппировать_177" data-name="Сгруппировать 177">
        <g id="Сгруппировать_24" data-name="Сгруппировать 24">
          <g id="Сгруппировать_3" data-name="Сгруппировать 3">
            <g id="Сгруппировать_1" data-name="Сгруппировать 1">
              <path id="Контур_1" data-name="Контур 1" d="M196.115,190.31a18.094,18.094,0,0,1-5.065-.734,14.525,14.525,0,0,1-5.146-2.69,14.134,14.134,0,0,1-4.159-5.874,16.492,16.492,0,0,1-.914-5.131,42.427,42.427,0,0,1,.164-5.6,64.528,64.528,0,0,1,.9-6.411.621.621,0,1,1,1.217.253c-.023.111-2.251,11.2-.211,16.43a12.9,12.9,0,0,0,3.789,5.363,13.3,13.3,0,0,0,4.71,2.458,16.311,16.311,0,0,0,5.726.642.626.626,0,0,1,.132,1.245C197.215,190.267,196.8,190.31,196.115,190.31Z" fill="#fcf8f0"/>
            </g>
            <g id="Сгруппировать_2" data-name="Сгруппировать 2">
              <path id="Контур_2" data-name="Контур 2" d="M197.192,190.266a.615.615,0,0,1-.366-.12.629.629,0,0,1-.136-.874,16.733,16.733,0,0,0,2.322-5.361,13.515,13.515,0,0,0,.229-5.324,12.952,12.952,0,0,0-2.709-5.963c-3.478-4.4-14.117-8-14.224-8.031a.627.627,0,0,1-.394-.791.62.62,0,0,1,.785-.4,63.268,63.268,0,0,1,5.96,2.42,41.691,41.691,0,0,1,4.892,2.656,16.29,16.29,0,0,1,3.952,3.363,14.187,14.187,0,0,1,2.968,6.567,14.789,14.789,0,0,1-.261,5.836,17.681,17.681,0,0,1-2.515,5.763A.619.619,0,0,1,197.192,190.266Z" fill="#fcf8f0"/>
            </g>
          </g>
          <g id="Сгруппировать_13" data-name="Сгруппировать 13">
            <g id="Сгруппировать_6" data-name="Сгруппировать 6">
              <g id="Сгруппировать_5" data-name="Сгруппировать 5">
                <g id="Сгруппировать_4" data-name="Сгруппировать 4">
                  <path id="Контур_3" data-name="Контур 3" d="M191.252,179.572a.3.3,0,0,1-.261-.152c-.179-.312-1.958-3.014-9.346-1.962a.3.3,0,0,1-.084-.6c7.618-1.085,9.626,1.692,9.952,2.259a.3.3,0,0,1-.11.415A.3.3,0,0,1,191.252,179.572Z" fill="#fcf8f0"/>
                </g>
              </g>
            </g>
            <g id="Сгруппировать_9" data-name="Сгруппировать 9">
              <g id="Сгруппировать_8" data-name="Сгруппировать 8">
                <g id="Сгруппировать_7" data-name="Сгруппировать 7">
                  <path id="Контур_4" data-name="Контур 4" d="M188.132,174.127a.3.3,0,0,1-.261-.152c-.1-.171-1.111-1.645-6.388-.636a.3.3,0,0,1-.112-.6,12.278,12.278,0,0,1,5.423-.1,2.54,2.54,0,0,1,1.6,1.033.3.3,0,0,1-.11.415A.3.3,0,0,1,188.132,174.127Z" fill="#fcf8f0"/>
                </g>
              </g>
            </g>
            <g id="Сгруппировать_12" data-name="Сгруппировать 12">
              <g id="Сгруппировать_11" data-name="Сгруппировать 11">
                <g id="Сгруппировать_10" data-name="Сгруппировать 10">
                  <path id="Контур_5" data-name="Контур 5" d="M185.374,169.313a.3.3,0,0,1-.261-.152c0-.007-.443-.711-3.29-.2a.3.3,0,0,1-.105-.6c2.974-.533,3.73.169,3.917.5a.3.3,0,0,1-.11.415A.3.3,0,0,1,185.374,169.313Z" fill="#fcf8f0"/>
                </g>
              </g>
            </g>
          </g>
          <g id="Сгруппировать_23" data-name="Сгруппировать 23">
            <g id="Сгруппировать_16" data-name="Сгруппировать 16">
              <g id="Сгруппировать_15" data-name="Сгруппировать 15">
                <g id="Сгруппировать_14" data-name="Сгруппировать 14">
                  <path id="Контур_6" data-name="Контур 6" d="M191.252,179.572a.3.3,0,0,1-.261-.152c-.325-.568-1.707-3.709,3.034-9.815a.3.3,0,0,1,.423-.052.305.305,0,0,1,.052.426c-4.6,5.922-3.166,8.826-2.987,9.138a.3.3,0,0,1-.11.415A.3.3,0,0,1,191.252,179.572Z" fill="#fcf8f0"/>
                </g>
              </g>
            </g>
            <g id="Сгруппировать_19" data-name="Сгруппировать 19">
              <g id="Сгруппировать_18" data-name="Сгруппировать 18">
                <g id="Сгруппировать_17" data-name="Сгруппировать 17">
                  <path id="Контур_7" data-name="Контур 7" d="M188.132,174.127a.3.3,0,0,1-.261-.152,2.577,2.577,0,0,1-.088-1.912,12.487,12.487,0,0,1,2.8-4.681.3.3,0,0,1,.425-.032.305.305,0,0,1,.032.428c-3.506,4.1-2.746,5.722-2.648,5.893a.3.3,0,0,1-.11.415A.3.3,0,0,1,188.132,174.127Z" fill="#fcf8f0"/>
                </g>
              </g>
            </g>
            <g id="Сгруппировать_22" data-name="Сгруппировать 22">
              <g id="Сгруппировать_21" data-name="Сгруппировать 21">
                <g id="Сгруппировать_20" data-name="Сгруппировать 20">
                  <path id="Контур_8" data-name="Контур 8" d="M185.374,169.313a.3.3,0,0,1-.261-.152c-.187-.326-.412-1.337,1.533-3.666a.3.3,0,0,1,.424-.037.305.305,0,0,1,.037.428c-1.861,2.229-1.476,2.965-1.472,2.972a.3.3,0,0,1-.11.415A.3.3,0,0,1,185.374,169.313Z" fill="#fcf8f0"/>
                </g>
              </g>
            </g>
          </g>
          <path id="Контур_9" data-name="Контур 9" d="M197.193,189.944a.3.3,0,0,1-.261-.152l-14.689-25.641a.3.3,0,0,1,.11-.415.3.3,0,0,1,.411.111l14.689,25.641a.3.3,0,0,1-.11.415A.3.3,0,0,1,197.193,189.944Z" fill="#fcf8f0"/>
        </g>
        <g id="Сгруппировать_48" data-name="Сгруппировать 48">
          <g id="Сгруппировать_27" data-name="Сгруппировать 27">
            <g id="Сгруппировать_25" data-name="Сгруппировать 25">
              <path id="Контур_10" data-name="Контур 10" d="M184.369,198.988a15.433,15.433,0,0,1-2.314-.178c-2.488-.377-5.716-1.962-9.595-4.71a63.655,63.655,0,0,1-5.059-3.992.629.629,0,0,1-.051-.884.618.618,0,0,1,.877-.052c.084.076,8.495,7.563,14.013,8.4a12.713,12.713,0,0,0,6.479-.617,13.3,13.3,0,0,0,4.46-2.861,16.672,16.672,0,0,0,3.446-4.707.62.62,0,0,1,.82-.318.628.628,0,0,1,.316.825,17.621,17.621,0,0,1-3.694,5.076,14.551,14.551,0,0,1-4.884,3.146A13.434,13.434,0,0,1,184.369,198.988Z" fill="#fcf8f0"/>
            </g>
            <g id="Сгруппировать_26" data-name="Сгруппировать 26">
              <path id="Контур_11" data-name="Контур 11" d="M197.193,190.266a.621.621,0,0,1-.568-.372,16.676,16.676,0,0,0-3.446-4.707,13.3,13.3,0,0,0-4.46-2.861,12.712,12.712,0,0,0-6.479-.617c-5.522.837-13.929,8.323-14.013,8.4a.618.618,0,0,1-.877-.052.629.629,0,0,1,.051-.884,63.647,63.647,0,0,1,5.059-3.992c3.878-2.748,7.106-4.333,9.595-4.71a13.925,13.925,0,0,1,7.127.693,14.55,14.55,0,0,1,4.884,3.146,17.621,17.621,0,0,1,3.694,5.076.628.628,0,0,1-.316.826A.615.615,0,0,1,197.193,190.266Z" fill="#fcf8f0"/>
            </g>
          </g>
          <g id="Сгруппировать_37" data-name="Сгруппировать 37">
            <g id="Сгруппировать_30" data-name="Сгруппировать 30">
              <g id="Сгруппировать_29" data-name="Сгруппировать 29">
                <g id="Сгруппировать_28" data-name="Сгруппировать 28">
                  <path id="Контур_12" data-name="Контур 12" d="M178.672,197.31a.3.3,0,0,1-.112-.022.3.3,0,0,1-.167-.4c2.877-7.192,6.267-7.556,6.917-7.556a.3.3,0,0,1,0,.607c-.357,0-3.569.2-6.359,7.176A.3.3,0,0,1,178.672,197.31Z" fill="#fcf8f0"/>
                </g>
              </g>
            </g>
            <g id="Сгруппировать_33" data-name="Сгруппировать 33">
              <g id="Сгруппировать_32" data-name="Сгруппировать 32">
                <g id="Сгруппировать_31" data-name="Сгруппировать 31">
                  <path id="Контур_13" data-name="Контур 13" d="M175.045,195.4a.3.3,0,0,1-.1-.017.3.3,0,0,1-.185-.387,12.491,12.491,0,0,1,2.622-4.785,2.531,2.531,0,0,1,1.687-.879.3.3,0,0,1,0,.607c-.2,0-1.97.148-3.741,5.258A.3.3,0,0,1,175.045,195.4Z" fill="#fcf8f0"/>
                </g>
              </g>
            </g>
            <g id="Сгруппировать_36" data-name="Сгруппировать 36">
              <g id="Сгруппировать_35" data-name="Сгруппировать 35">
                <g id="Сгруппировать_34" data-name="Сгруппировать 34">
                  <path id="Контур_14" data-name="Контур 14" d="M171.454,192.915a.3.3,0,0,1-.1-.018.3.3,0,0,1-.181-.389c1.029-2.862,2.01-3.171,2.384-3.171a.3.3,0,0,1,0,.607c-.008,0-.833.032-1.818,2.771A.3.3,0,0,1,171.454,192.915Z" fill="#fcf8f0"/>
                </g>
              </g>
            </g>
          </g>
          <g id="Сгруппировать_47" data-name="Сгруппировать 47">
            <g id="Сгруппировать_40" data-name="Сгруппировать 40">
              <g id="Сгруппировать_39" data-name="Сгруппировать 39">
                <g id="Сгруппировать_38" data-name="Сгруппировать 38">
                  <path id="Контур_15" data-name="Контур 15" d="M185.31,189.944c-.65,0-4.041-.364-6.917-7.556a.3.3,0,0,1,.167-.4.3.3,0,0,1,.392.168c2.79,6.975,6,7.176,6.359,7.176a.3.3,0,0,1,0,.607Z" fill="#fcf8f0"/>
                </g>
              </g>
            </g>
            <g id="Сгруппировать_43" data-name="Сгруппировать 43">
              <g id="Сгруппировать_42" data-name="Сгруппировать 42">
                <g id="Сгруппировать_41" data-name="Сгруппировать 41">
                  <path id="Контур_16" data-name="Контур 16" d="M179.07,189.944a2.531,2.531,0,0,1-1.687-.879,12.49,12.49,0,0,1-2.622-4.785.3.3,0,0,1,.185-.387.3.3,0,0,1,.384.186c1.771,5.11,3.544,5.258,3.741,5.258a.3.3,0,0,1,0,.607Z" fill="#fcf8f0"/>
                </g>
              </g>
            </g>
            <g id="Сгруппировать_46" data-name="Сгруппировать 46">
              <g id="Сгруппировать_45" data-name="Сгруппировать 45">
                <g id="Сгруппировать_44" data-name="Сгруппировать 44">
                  <path id="Контур_17" data-name="Контур 17" d="M173.555,189.944c-.374,0-1.355-.309-2.384-3.171a.3.3,0,0,1,.181-.389.3.3,0,0,1,.386.182c.985,2.739,1.81,2.771,1.818,2.771a.3.3,0,0,1,0,.607Z" fill="#fcf8f0"/>
                </g>
              </g>
            </g>
          </g>
          <path id="Контур_18" data-name="Контур 18" d="M197.193,189.944H167.814a.3.3,0,0,1,0-.607h29.379a.3.3,0,0,1,0,.607Z" fill="#fcf8f0"/>
        </g>
        <g id="Сгруппировать_72" data-name="Сгруппировать 72">
          <g id="Сгруппировать_51" data-name="Сгруппировать 51">
            <g id="Сгруппировать_49" data-name="Сгруппировать 49">
              <path id="Контур_19" data-name="Контур 19" d="M182.5,215.585a.3.3,0,0,1-.095-.592c.108-.036,10.836-3.663,14.373-8.136a13.269,13.269,0,0,0,2.777-6.125,13.848,13.848,0,0,0-.241-5.46,17.041,17.041,0,0,0-2.369-5.454.305.305,0,0,1,.066-.424.3.3,0,0,1,.421.066,17.321,17.321,0,0,1,2.463,5.648,14.468,14.468,0,0,1,.257,5.708,13.869,13.869,0,0,1-2.9,6.418c-1.537,1.944-4.474,3.938-8.729,5.928a62.919,62.919,0,0,1-5.926,2.406A.3.3,0,0,1,182.5,215.585Z" fill="#fcf8f0"/>
            </g>
            <g id="Сгруппировать_50" data-name="Сгруппировать 50">
              <path id="Контур_20" data-name="Контур 20" d="M182.5,215.908a.623.623,0,0,1-.608-.5,64.526,64.526,0,0,1-.9-6.411,42.428,42.428,0,0,1-.164-5.6,16.493,16.493,0,0,1,.914-5.131,14.133,14.133,0,0,1,4.159-5.874,14.526,14.526,0,0,1,5.146-2.69,17.354,17.354,0,0,1,6.209-.686.626.626,0,0,1-.132,1.245,16.42,16.42,0,0,0-5.768.654,13.275,13.275,0,0,0-4.689,2.462,12.9,12.9,0,0,0-3.769,5.346c-2.04,5.234.188,16.318.211,16.43a.626.626,0,0,1-.483.739A.617.617,0,0,1,182.5,215.908Z" fill="#fcf8f0"/>
            </g>
          </g>
          <g id="Сгруппировать_61" data-name="Сгруппировать 61">
            <g id="Сгруппировать_54" data-name="Сгруппировать 54">
              <g id="Сгруппировать_53" data-name="Сгруппировать 53">
                <g id="Сгруппировать_52" data-name="Сгруппировать 52">
                  <path id="Контур_21" data-name="Контур 21" d="M194.262,209.792a.3.3,0,0,1-.237-.117c-4.742-6.107-3.36-9.248-3.034-9.815a.3.3,0,0,1,.411-.111.3.3,0,0,1,.11.415c-.179.312-1.611,3.216,2.987,9.138a.305.305,0,0,1-.052.426A.3.3,0,0,1,194.262,209.792Z" fill="#fcf8f0"/>
                </g>
              </g>
            </g>
            <g id="Сгруппировать_57" data-name="Сгруппировать 57">
              <g id="Сгруппировать_56" data-name="Сгруппировать 56">
                <g id="Сгруппировать_55" data-name="Сгруппировать 55">
                  <path id="Контур_22" data-name="Контур 22" d="M190.812,212a.3.3,0,0,1-.228-.105,12.486,12.486,0,0,1-2.8-4.681,2.577,2.577,0,0,1,.088-1.912.3.3,0,0,1,.411-.111.3.3,0,0,1,.11.415c-.1.171-.858,1.793,2.648,5.894a.305.305,0,0,1-.032.428A.3.3,0,0,1,190.812,212Z" fill="#fcf8f0"/>
                </g>
              </g>
            </g>
            <g id="Сгруппировать_60" data-name="Сгруппировать 60">
              <g id="Сгруппировать_59" data-name="Сгруппировать 59">
                <g id="Сгруппировать_58" data-name="Сгруппировать 58">
                  <path id="Контур_23" data-name="Контур 23" d="M186.877,213.894a.3.3,0,0,1-.231-.108c-1.945-2.329-1.72-3.34-1.533-3.666a.3.3,0,0,1,.411-.111.3.3,0,0,1,.11.415c0,.007-.389.743,1.472,2.972a.305.305,0,0,1-.037.428A.3.3,0,0,1,186.877,213.894Z" fill="#fcf8f0"/>
                </g>
              </g>
            </g>
          </g>
          <g id="Сгруппировать_71" data-name="Сгруппировать 71">
            <g id="Сгруппировать_64" data-name="Сгруппировать 64">
              <g id="Сгруппировать_63" data-name="Сгруппировать 63">
                <g id="Сгруппировать_62" data-name="Сгруппировать 62">
                  <path id="Контур_24" data-name="Контур 24" d="M184.817,202.672a23.152,23.152,0,0,1-3.257-.249.3.3,0,0,1,.084-.6c7.388,1.052,9.167-1.65,9.346-1.962a.3.3,0,0,1,.411-.111.3.3,0,0,1,.11.415C191.239,200.64,189.781,202.672,184.817,202.672Z" fill="#fcf8f0"/>
                </g>
              </g>
            </g>
            <g id="Сгруппировать_67" data-name="Сгруппировать 67">
              <g id="Сгруппировать_66" data-name="Сгруппировать 66">
                <g id="Сгруппировать_65" data-name="Сгруппировать 65">
                  <path id="Контур_25" data-name="Контур 25" d="M184.691,206.9a17.942,17.942,0,0,1-3.321-.359.3.3,0,0,1,.112-.6c5.277,1.009,6.29-.465,6.388-.636a.3.3,0,0,1,.411-.111.3.3,0,0,1,.11.415,2.54,2.54,0,0,1-1.6,1.033A7.679,7.679,0,0,1,184.691,206.9Z" fill="#fcf8f0"/>
                </g>
              </g>
            </g>
            <g id="Сгруппировать_70" data-name="Сгруппировать 70">
              <g id="Сгруппировать_69" data-name="Сгруппировать 69">
                <g id="Сгруппировать_68" data-name="Сгруппировать 68">
                  <path id="Контур_26" data-name="Контур 26" d="M183.616,211.112a10.891,10.891,0,0,1-1.9-.193.3.3,0,0,1,.105-.6c2.847.51,3.286-.194,3.29-.2a.3.3,0,0,1,.411-.111.3.3,0,0,1,.11.415C185.5,210.664,185.046,211.112,183.616,211.112Z" fill="#fcf8f0"/>
                </g>
              </g>
            </g>
          </g>
          <path id="Контур_27" data-name="Контур 27" d="M182.5,215.585a.3.3,0,0,1-.15-.041.3.3,0,0,1-.11-.415l14.689-25.641a.3.3,0,0,1,.411-.111.3.3,0,0,1,.11.415l-14.689,25.641A.3.3,0,0,1,182.5,215.585Z" fill="#fcf8f0"/>
        </g>
        <g id="Сгруппировать_96" data-name="Сгруппировать 96">
          <g id="Сгруппировать_75" data-name="Сгруппировать 75">
            <g id="Сгруппировать_73" data-name="Сгруппировать 73">
              <path id="Контур_28" data-name="Контур 28" d="M211.883,215.908a.617.617,0,0,1-.126-.013.626.626,0,0,1-.483-.739c.023-.111,2.251-11.2.211-16.43a12.9,12.9,0,0,0-3.769-5.346,13.274,13.274,0,0,0-4.689-2.462,16.421,16.421,0,0,0-5.768-.654.626.626,0,0,1-.131-1.245,17.353,17.353,0,0,1,6.209.686,14.527,14.527,0,0,1,5.146,2.69,14.134,14.134,0,0,1,4.159,5.874,16.493,16.493,0,0,1,.914,5.131,42.428,42.428,0,0,1-.164,5.6,64.532,64.532,0,0,1-.9,6.411A.623.623,0,0,1,211.883,215.908Z" fill="#fcf8f0"/>
            </g>
            <g id="Сгруппировать_74" data-name="Сгруппировать 74">
              <path id="Контур_29" data-name="Контур 29" d="M211.882,215.908a.615.615,0,0,1-.2-.032,63.279,63.279,0,0,1-5.96-2.42,41.69,41.69,0,0,1-4.892-2.656,16.287,16.287,0,0,1-3.952-3.363,14.188,14.188,0,0,1-2.968-6.567,14.789,14.789,0,0,1,.261-5.836,17.681,17.681,0,0,1,2.515-5.763.618.618,0,0,1,.868-.137.629.629,0,0,1,.136.875,16.739,16.739,0,0,0-2.321,5.361,13.516,13.516,0,0,0-.229,5.324,12.952,12.952,0,0,0,2.709,5.963c3.478,4.4,14.117,8,14.224,8.031a.627.627,0,0,1-.2,1.22Z" fill="#fcf8f0"/>
            </g>
          </g>
          <g id="Сгруппировать_85" data-name="Сгруппировать 85">
            <g id="Сгруппировать_78" data-name="Сгруппировать 78">
              <g id="Сгруппировать_77" data-name="Сгруппировать 77">
                <g id="Сгруппировать_76" data-name="Сгруппировать 76">
                  <path id="Контур_30" data-name="Контур 30" d="M209.569,202.672c-4.965,0-6.422-2.032-6.7-2.508a.3.3,0,0,1,.11-.415.3.3,0,0,1,.411.111c.179.312,1.957,3.014,9.346,1.962a.3.3,0,0,1,.084.6A23.156,23.156,0,0,1,209.569,202.672Z" fill="#fcf8f0"/>
                </g>
              </g>
            </g>
            <g id="Сгруппировать_81" data-name="Сгруппировать 81">
              <g id="Сгруппировать_80" data-name="Сгруппировать 80">
                <g id="Сгруппировать_79" data-name="Сгруппировать 79">
                  <path id="Контур_31" data-name="Контур 31" d="M209.695,206.9a7.679,7.679,0,0,1-2.1-.255,2.54,2.54,0,0,1-1.6-1.033.3.3,0,0,1,.11-.415.3.3,0,0,1,.411.111c.1.171,1.112,1.645,6.388.636a.3.3,0,0,1,.112.6A17.941,17.941,0,0,1,209.695,206.9Z" fill="#fcf8f0"/>
                </g>
              </g>
            </g>
            <g id="Сгруппировать_84" data-name="Сгруппировать 84">
              <g id="Сгруппировать_83" data-name="Сгруппировать 83">
                <g id="Сгруппировать_82" data-name="Сгруппировать 82">
                  <path id="Контур_32" data-name="Контур 32" d="M210.77,211.112c-1.431,0-1.881-.447-2.019-.689a.3.3,0,0,1,.11-.415.3.3,0,0,1,.411.111c0,.007.444.711,3.29.2a.3.3,0,0,1,.105.6A10.89,10.89,0,0,1,210.77,211.112Z" fill="#fcf8f0"/>
                </g>
              </g>
            </g>
          </g>
          <g id="Сгруппировать_95" data-name="Сгруппировать 95">
            <g id="Сгруппировать_88" data-name="Сгруппировать 88">
              <g id="Сгруппировать_87" data-name="Сгруппировать 87">
                <g id="Сгруппировать_86" data-name="Сгруппировать 86">
                  <path id="Контур_33" data-name="Контур 33" d="M200.123,209.792a.3.3,0,0,1-.185-.064.305.305,0,0,1-.052-.426c4.6-5.922,3.166-8.826,2.987-9.138a.3.3,0,0,1,.11-.415.3.3,0,0,1,.411.111c.325.568,1.707,3.709-3.034,9.815A.3.3,0,0,1,200.123,209.792Z" fill="#fcf8f0"/>
                </g>
              </g>
            </g>
            <g id="Сгруппировать_91" data-name="Сгруппировать 91">
              <g id="Сгруппировать_90" data-name="Сгруппировать 90">
                <g id="Сгруппировать_89" data-name="Сгруппировать 89">
                  <path id="Контур_34" data-name="Контур 34" d="M203.574,212a.3.3,0,0,1-.2-.074.305.305,0,0,1-.032-.428c3.506-4.1,2.746-5.722,2.648-5.894a.3.3,0,0,1,.11-.415.3.3,0,0,1,.411.111,2.577,2.577,0,0,1,.088,1.912,12.486,12.486,0,0,1-2.8,4.681A.3.3,0,0,1,203.574,212Z" fill="#fcf8f0"/>
                </g>
              </g>
            </g>
            <g id="Сгруппировать_94" data-name="Сгруппировать 94">
              <g id="Сгруппировать_93" data-name="Сгруппировать 93">
                <g id="Сгруппировать_92" data-name="Сгруппировать 92">
                  <path id="Контур_35" data-name="Контур 35" d="M207.509,213.894a.3.3,0,0,1-.194-.071.305.305,0,0,1-.037-.428c1.861-2.229,1.476-2.965,1.472-2.972a.3.3,0,0,1,.11-.415.3.3,0,0,1,.411.111c.187.326.412,1.337-1.533,3.666A.3.3,0,0,1,207.509,213.894Z" fill="#fcf8f0"/>
                </g>
              </g>
            </g>
          </g>
          <path id="Контур_36" data-name="Контур 36" d="M211.883,215.585a.3.3,0,0,1-.261-.152l-14.689-25.641a.3.3,0,0,1,.11-.415.3.3,0,0,1,.411.111l14.689,25.641a.3.3,0,0,1-.11.415A.3.3,0,0,1,211.883,215.585Z" fill="#fcf8f0"/>
        </g>
        <g id="Сгруппировать_120" data-name="Сгруппировать 120">
          <g id="Сгруппировать_99" data-name="Сгруппировать 99">
            <g id="Сгруппировать_97" data-name="Сгруппировать 97">
              <path id="Контур_37" data-name="Контур 37" d="M226.571,190.266a.616.616,0,0,1-.412-.158c-.084-.076-8.495-7.563-14.013-8.4a12.712,12.712,0,0,0-6.479.617,13.3,13.3,0,0,0-4.46,2.861,16.673,16.673,0,0,0-3.446,4.707.62.62,0,0,1-.82.318.628.628,0,0,1-.316-.825,17.622,17.622,0,0,1,3.694-5.076,14.55,14.55,0,0,1,4.884-3.146,13.926,13.926,0,0,1,7.127-.693c2.488.377,5.716,1.962,9.595,4.71a63.649,63.649,0,0,1,5.059,3.992.629.629,0,0,1,.051.884A.618.618,0,0,1,226.571,190.266Z" fill="#fcf8f0"/>
            </g>
            <g id="Сгруппировать_98" data-name="Сгруппировать 98">
              <path id="Контур_38" data-name="Контур 38" d="M210.017,198.988a13.433,13.433,0,0,1-4.813-.871,14.551,14.551,0,0,1-4.884-3.146,17.622,17.622,0,0,1-3.694-5.076.628.628,0,0,1,.316-.826.619.619,0,0,1,.819.318h0a16.672,16.672,0,0,0,3.446,4.707,13.3,13.3,0,0,0,4.46,2.861,12.711,12.711,0,0,0,6.479.617c5.522-.837,13.929-8.323,14.013-8.4a.618.618,0,0,1,.877.052.629.629,0,0,1-.051.884,63.657,63.657,0,0,1-5.059,3.992c-3.878,2.748-7.106,4.333-9.595,4.71A15.433,15.433,0,0,1,210.017,198.988Z" fill="#fcf8f0"/>
            </g>
          </g>
          <g id="Сгруппировать_109" data-name="Сгруппировать 109">
            <g id="Сгруппировать_102" data-name="Сгруппировать 102">
              <g id="Сгруппировать_101" data-name="Сгруппировать 101">
                <g id="Сгруппировать_100" data-name="Сгруппировать 100">
                  <path id="Контур_39" data-name="Контур 39" d="M209.076,189.944a.3.3,0,0,1,0-.607c.357,0,3.569-.2,6.359-7.176a.3.3,0,0,1,.392-.168.3.3,0,0,1,.167.4C213.116,189.579,209.726,189.944,209.076,189.944Z" fill="#fcf8f0"/>
                </g>
              </g>
            </g>
            <g id="Сгруппировать_105" data-name="Сгруппировать 105">
              <g id="Сгруппировать_104" data-name="Сгруппировать 104">
                <g id="Сгруппировать_103" data-name="Сгруппировать 103">
                  <path id="Контур_40" data-name="Контур 40" d="M215.315,189.944a.3.3,0,0,1,0-.607c.2,0,1.969-.148,3.741-5.258a.3.3,0,0,1,.384-.186.3.3,0,0,1,.185.387A12.49,12.49,0,0,1,217,189.065,2.531,2.531,0,0,1,215.315,189.944Z" fill="#fcf8f0"/>
                </g>
              </g>
            </g>
            <g id="Сгруппировать_108" data-name="Сгруппировать 108">
              <g id="Сгруппировать_107" data-name="Сгруппировать 107">
                <g id="Сгруппировать_106" data-name="Сгруппировать 106">
                  <path id="Контур_41" data-name="Контур 41" d="M220.831,189.944a.3.3,0,0,1,0-.607c.008,0,.833-.032,1.818-2.771a.3.3,0,0,1,.386-.182.3.3,0,0,1,.181.389C222.185,189.635,221.2,189.944,220.831,189.944Z" fill="#fcf8f0"/>
                </g>
              </g>
            </g>
          </g>
          <g id="Сгруппировать_119" data-name="Сгруппировать 119">
            <g id="Сгруппировать_112" data-name="Сгруппировать 112">
              <g id="Сгруппировать_111" data-name="Сгруппировать 111">
                <g id="Сгруппировать_110" data-name="Сгруппировать 110">
                  <path id="Контур_42" data-name="Контур 42" d="M215.714,197.31a.3.3,0,0,1-.279-.19c-2.79-6.975-6-7.176-6.359-7.176a.3.3,0,0,1,0-.607c.65,0,4.041.364,6.917,7.556a.3.3,0,0,1-.167.4A.3.3,0,0,1,215.714,197.31Z" fill="#fcf8f0"/>
                </g>
              </g>
            </g>
            <g id="Сгруппировать_115" data-name="Сгруппировать 115">
              <g id="Сгруппировать_114" data-name="Сгруппировать 114">
                <g id="Сгруппировать_113" data-name="Сгруппировать 113">
                  <path id="Контур_43" data-name="Контур 43" d="M219.34,195.4a.3.3,0,0,1-.284-.2c-1.771-5.11-3.544-5.258-3.741-5.258a.3.3,0,0,1,0-.607,2.531,2.531,0,0,1,1.687.879A12.491,12.491,0,0,1,219.625,195a.3.3,0,0,1-.185.387A.3.3,0,0,1,219.34,195.4Z" fill="#fcf8f0"/>
                </g>
              </g>
            </g>
            <g id="Сгруппировать_118" data-name="Сгруппировать 118">
              <g id="Сгруппировать_117" data-name="Сгруппировать 117">
                <g id="Сгруппировать_116" data-name="Сгруппировать 116">
                  <path id="Контур_44" data-name="Контур 44" d="M222.932,192.915a.3.3,0,0,1-.283-.2c-.985-2.739-1.81-2.771-1.818-2.771a.3.3,0,0,1,0-.607c.374,0,1.355.309,2.384,3.171a.3.3,0,0,1-.181.389A.3.3,0,0,1,222.932,192.915Z" fill="#fcf8f0"/>
                </g>
              </g>
            </g>
          </g>
          <path id="Контур_45" data-name="Контур 45" d="M226.572,189.944H197.193a.3.3,0,0,1,0-.607h29.379a.3.3,0,0,1,0,.607Z" fill="#fcf8f0"/>
        </g>
        <g id="Сгруппировать_144" data-name="Сгруппировать 144">
          <g id="Сгруппировать_123" data-name="Сгруппировать 123">
            <g id="Сгруппировать_121" data-name="Сгруппировать 121">
              <path id="Контур_46" data-name="Контур 46" d="M197.193,190.266a.618.618,0,0,1-.5-.257,17.682,17.682,0,0,1-2.515-5.763,14.789,14.789,0,0,1-.261-5.836,14.188,14.188,0,0,1,2.968-6.567,16.29,16.29,0,0,1,3.952-3.363,41.691,41.691,0,0,1,4.892-2.656,63.275,63.275,0,0,1,5.96-2.42.62.62,0,0,1,.785.4.627.627,0,0,1-.394.791c-.107.036-10.746,3.633-14.224,8.031a12.952,12.952,0,0,0-2.709,5.963,13.515,13.515,0,0,0,.229,5.324,16.727,16.727,0,0,0,2.322,5.361.63.63,0,0,1-.137.874A.615.615,0,0,1,197.193,190.266Z" fill="#fcf8f0"/>
            </g>
            <g id="Сгруппировать_122" data-name="Сгруппировать 122">
              <path id="Контур_47" data-name="Контур 47" d="M198.271,190.31c-.681,0-1.1-.043-1.144-.048a.626.626,0,0,1,.132-1.245,16.427,16.427,0,0,0,5.768-.655,13.273,13.273,0,0,0,4.689-2.462,12.9,12.9,0,0,0,3.769-5.346c2.042-5.238-.188-16.318-.211-16.43a.621.621,0,1,1,1.217-.253,64.533,64.533,0,0,1,.9,6.411,42.427,42.427,0,0,1,.164,5.6,16.492,16.492,0,0,1-.914,5.131,14.134,14.134,0,0,1-4.159,5.874,14.526,14.526,0,0,1-5.146,2.69A18.1,18.1,0,0,1,198.271,190.31Z" fill="#fcf8f0"/>
            </g>
          </g>
          <g id="Сгруппировать_133" data-name="Сгруппировать 133">
            <g id="Сгруппировать_126" data-name="Сгруппировать 126">
              <g id="Сгруппировать_125" data-name="Сгруппировать 125">
                <g id="Сгруппировать_124" data-name="Сгруппировать 124">
                  <path id="Контур_48" data-name="Контур 48" d="M203.134,179.572a.3.3,0,0,1-.15-.041.3.3,0,0,1-.11-.415c.179-.312,1.611-3.215-2.987-9.138a.305.305,0,0,1,.052-.426.3.3,0,0,1,.423.052c4.742,6.107,3.36,9.248,3.034,9.815A.3.3,0,0,1,203.134,179.572Z" fill="#fcf8f0"/>
                </g>
              </g>
            </g>
            <g id="Сгруппировать_129" data-name="Сгруппировать 129">
              <g id="Сгруппировать_128" data-name="Сгруппировать 128">
                <g id="Сгруппировать_127" data-name="Сгруппировать 127">
                  <path id="Контур_49" data-name="Контур 49" d="M206.254,174.127a.3.3,0,0,1-.15-.041.3.3,0,0,1-.11-.415c.1-.171.858-1.793-2.648-5.893a.305.305,0,0,1,.032-.428.3.3,0,0,1,.425.032,12.487,12.487,0,0,1,2.8,4.681,2.577,2.577,0,0,1-.088,1.912A.3.3,0,0,1,206.254,174.127Z" fill="#fcf8f0"/>
                </g>
              </g>
            </g>
            <g id="Сгруппировать_132" data-name="Сгруппировать 132">
              <g id="Сгруппировать_131" data-name="Сгруппировать 131">
                <g id="Сгруппировать_130" data-name="Сгруппировать 130">
                  <path id="Контур_50" data-name="Контур 50" d="M209.011,169.313a.3.3,0,0,1-.15-.041.3.3,0,0,1-.11-.415c0-.007.389-.743-1.472-2.972a.305.305,0,0,1,.037-.428.3.3,0,0,1,.424.037c1.945,2.329,1.72,3.34,1.533,3.666A.3.3,0,0,1,209.011,169.313Z" fill="#fcf8f0"/>
                </g>
              </g>
            </g>
          </g>
          <g id="Сгруппировать_143" data-name="Сгруппировать 143">
            <g id="Сгруппировать_136" data-name="Сгруппировать 136">
              <g id="Сгруппировать_135" data-name="Сгруппировать 135">
                <g id="Сгруппировать_134" data-name="Сгруппировать 134">
                  <path id="Контур_51" data-name="Контур 51" d="M203.134,179.572a.3.3,0,0,1-.15-.041.3.3,0,0,1-.11-.415c.325-.568,2.333-3.344,9.952-2.259a.3.3,0,0,1-.084.6c-7.388-1.052-9.167,1.65-9.346,1.962A.3.3,0,0,1,203.134,179.572Z" fill="#fcf8f0"/>
                </g>
              </g>
            </g>
            <g id="Сгруппировать_139" data-name="Сгруппировать 139">
              <g id="Сгруппировать_138" data-name="Сгруппировать 138">
                <g id="Сгруппировать_137" data-name="Сгруппировать 137">
                  <path id="Контур_52" data-name="Контур 52" d="M206.254,174.127a.3.3,0,0,1-.15-.041.3.3,0,0,1-.11-.415,2.54,2.54,0,0,1,1.6-1.033,12.277,12.277,0,0,1,5.423.1.3.3,0,0,1-.112.6c-5.277-1.009-6.29.465-6.388.636A.3.3,0,0,1,206.254,174.127Z" fill="#fcf8f0"/>
                </g>
              </g>
            </g>
            <g id="Сгруппировать_142" data-name="Сгруппировать 142">
              <g id="Сгруппировать_141" data-name="Сгруппировать 141">
                <g id="Сгруппировать_140" data-name="Сгруппировать 140">
                  <path id="Контур_53" data-name="Контур 53" d="M209.011,169.313a.3.3,0,0,1-.15-.041.3.3,0,0,1-.11-.415c.187-.326.943-1.028,3.917-.5a.3.3,0,0,1-.105.6c-2.847-.51-3.286.194-3.29.2A.3.3,0,0,1,209.011,169.313Z" fill="#fcf8f0"/>
                </g>
              </g>
            </g>
          </g>
          <path id="Контур_54" data-name="Контур 54" d="M197.193,189.944a.3.3,0,0,1-.15-.041.3.3,0,0,1-.11-.415l14.689-25.641a.3.3,0,0,1,.411-.111.3.3,0,0,1,.11.415l-14.689,25.641A.3.3,0,0,1,197.193,189.944Z" fill="#fcf8f0"/>
        </g>
        <g id="Сгруппировать_149" data-name="Сгруппировать 149">
          <g id="Сгруппировать_148" data-name="Сгруппировать 148">
            <g id="Сгруппировать_147" data-name="Сгруппировать 147">
              <g id="Сгруппировать_145" data-name="Сгруппировать 145">
                <path id="Контур_55" data-name="Контур 55" d="M197.193,168.473a.3.3,0,0,1-.275-.181.3.3,0,0,1,.153-.4h0a5.343,5.343,0,0,0,1.508-1.124,4.071,4.071,0,0,0,1.1-3.535c-.268-1.8-2.69-4.561-2.714-4.588a.305.305,0,0,1,.025-.429.3.3,0,0,1,.425.025c.1.118,2.565,2.926,2.86,4.9A4.714,4.714,0,0,1,199,167.2a5.847,5.847,0,0,1-1.686,1.245A.3.3,0,0,1,197.193,168.473Z" fill="#fcf8f0"/>
              </g>
              <g id="Сгруппировать_146" data-name="Сгруппировать 146">
                <path id="Контур_56" data-name="Контур 56" d="M197.193,168.473a.3.3,0,0,1-.122-.026,5.848,5.848,0,0,1-1.686-1.245,4.714,4.714,0,0,1-1.277-4.058c.295-1.976,2.755-4.783,2.86-4.9a.3.3,0,0,1,.425-.025.305.305,0,0,1,.025.429c-.024.028-2.446,2.791-2.714,4.588a4.072,4.072,0,0,0,1.118,3.55,5.29,5.29,0,0,0,1.493,1.108.3.3,0,0,1,.153.4A.3.3,0,0,1,197.193,168.473Z" fill="#fcf8f0"/>
              </g>
            </g>
            <path id="Контур_57" data-name="Контур 57" d="M197.193,168.473a.3.3,0,0,1-.3-.3v-9.726a.3.3,0,1,1,.6,0v9.726A.3.3,0,0,1,197.193,168.473Z" fill="#fcf8f0"/>
          </g>
          <ellipse id="Эллипс_1" data-name="Эллипс 1" cx="0.746" cy="0.752" rx="0.746" ry="0.752" transform="matrix(0.259, -0.966, 0.966, 0.259, 189.476, 163.706)" fill="#fcf8f0"/>
          <ellipse id="Эллипс_2" data-name="Эллипс 2" cx="0.746" cy="0.752" rx="0.746" ry="0.752" transform="matrix(0.259, -0.966, 0.966, 0.259, 176.938, 171.001)" fill="#fcf8f0"/>
        </g>
        <g id="Сгруппировать_154" data-name="Сгруппировать 154">
          <g id="Сгруппировать_153" data-name="Сгруппировать 153">
            <g id="Сгруппировать_152" data-name="Сгруппировать 152">
              <g id="Сгруппировать_150" data-name="Сгруппировать 150">
                <path id="Контур_58" data-name="Контур 58" d="M178.743,179.209l-.032,0a.3.3,0,0,1-.267-.334,5.422,5.422,0,0,0-.212-1.878,4.039,4.039,0,0,0-2.486-2.73c-1.679-.665-5.264.067-5.3.075a.3.3,0,0,1-.122-.595c.154-.032,3.8-.775,5.642-.045a4.678,4.678,0,0,1,2.849,3.144,5.942,5.942,0,0,1,.227,2.094A.3.3,0,0,1,178.743,179.209Z" fill="#fcf8f0"/>
              </g>
              <g id="Сгруппировать_151" data-name="Сгруппировать 151">
                <path id="Контур_59" data-name="Контур 59" d="M175.813,180.146a4.613,4.613,0,0,1-2.932-1.062c-1.551-1.245-2.733-4.8-2.782-4.947a.3.3,0,0,1,.191-.384.3.3,0,0,1,.381.192c.012.035,1.175,3.53,2.586,4.663a4,4,0,0,0,3.609.8,5.268,5.268,0,0,0,1.7-.749.3.3,0,0,1,.421.066.305.305,0,0,1-.066.424,5.83,5.83,0,0,1-1.913.849A5.048,5.048,0,0,1,175.813,180.146Z" fill="#fcf8f0"/>
              </g>
            </g>
            <path id="Контур_60" data-name="Контур 60" d="M178.742,179.209a.3.3,0,0,1-.15-.041l-8.358-4.863a.3.3,0,0,1-.11-.415.3.3,0,0,1,.411-.111l8.357,4.863a.3.3,0,0,1,.11.415A.3.3,0,0,1,178.742,179.209Z" fill="#fcf8f0"/>
          </g>
          <ellipse id="Эллипс_3" data-name="Эллипс 3" cx="0.746" cy="0.752" rx="0.746" ry="0.752" transform="matrix(0.16, -0.987, 0.987, 0.16, 170.193, 182.966)" fill="#fcf8f0"/>
          <ellipse id="Эллипс_4" data-name="Эллипс 4" cx="0.746" cy="0.752" rx="0.746" ry="0.752" transform="matrix(0.16, -0.987, 0.987, 0.16, 170.193, 197.557)" fill="#fcf8f0"/>
        </g>
        <g id="Сгруппировать_165" data-name="Сгруппировать 165">
          <g id="Сгруппировать_159" data-name="Сгруппировать 159">
            <g id="Сгруппировать_158" data-name="Сгруппировать 158">
              <g id="Сгруппировать_157" data-name="Сгруппировать 157">
                <g id="Сгруппировать_155" data-name="Сгруппировать 155">
                  <path id="Контур_61" data-name="Контур 61" d="M170.385,205.542a.3.3,0,0,1-.095-.016.3.3,0,0,1-.191-.384c.05-.151,1.232-3.7,2.782-4.947a4.627,4.627,0,0,1,4.126-.915,5.83,5.83,0,0,1,1.913.849.305.305,0,0,1,.066.424.3.3,0,0,1-.42.067h0a5.322,5.322,0,0,0-1.72-.754,4,4,0,0,0-3.589.8,7.9,7.9,0,0,0-1.818,2.744,20.533,20.533,0,0,0-.767,1.919A.3.3,0,0,1,170.385,205.542Z" fill="#fcf8f0"/>
                </g>
                <g id="Сгруппировать_156" data-name="Сгруппировать 156">
                  <path id="Контур_62" data-name="Контур 62" d="M173.763,205.9a19.188,19.188,0,0,1-3.439-.365.3.3,0,0,1,.122-.595c.036.007,3.621.739,5.3.075a4.04,4.04,0,0,0,2.491-2.75,5.367,5.367,0,0,0,.206-1.857.3.3,0,1,1,.6-.065,5.942,5.942,0,0,1-.227,2.094,4.678,4.678,0,0,1-2.849,3.144A6.261,6.261,0,0,1,173.763,205.9Z" fill="#fcf8f0"/>
                </g>
              </g>
              <path id="Контур_63" data-name="Контур 63" d="M170.385,205.542a.3.3,0,0,1-.261-.152.3.3,0,0,1,.11-.415l8.358-4.863a.3.3,0,0,1,.411.111.3.3,0,0,1-.11.415l-8.357,4.863A.3.3,0,0,1,170.385,205.542Z" fill="#fcf8f0"/>
            </g>
            <ellipse id="Эллипс_5" data-name="Эллипс 5" cx="0.746" cy="0.752" rx="0.746" ry="0.752" transform="translate(177.106 208.059)" fill="#fcf8f0"/>
            <ellipse id="Эллипс_6" data-name="Эллипс 6" cx="0.746" cy="0.752" rx="0.746" ry="0.752" transform="translate(189.644 215.354)" fill="#fcf8f0"/>
          </g>
          <g id="Сгруппировать_164" data-name="Сгруппировать 164">
            <g id="Сгруппировать_163" data-name="Сгруппировать 163">
              <g id="Сгруппировать_162" data-name="Сгруппировать 162">
                <g id="Сгруппировать_160" data-name="Сгруппировать 160">
                  <path id="Контур_64" data-name="Контур 64" d="M197.193,221.14a.3.3,0,0,1-.225-.1c-.1-.118-2.565-2.926-2.86-4.9a4.714,4.714,0,0,1,1.277-4.058,5.849,5.849,0,0,1,1.686-1.245.3.3,0,0,1,.4.155.3.3,0,0,1-.153.4h0a5.34,5.34,0,0,0-1.508,1.124,4.071,4.071,0,0,0-1.1,3.535c.268,1.8,2.69,4.561,2.714,4.589a.305.305,0,0,1-.025.429A.3.3,0,0,1,197.193,221.14Z" fill="#fcf8f0"/>
                </g>
                <g id="Сгруппировать_161" data-name="Сгруппировать 161">
                  <path id="Контур_65" data-name="Контур 65" d="M197.193,221.14a.3.3,0,0,1-.2-.077.305.305,0,0,1-.025-.429c.024-.028,2.446-2.791,2.714-4.589a4.071,4.071,0,0,0-1.1-3.535,5.34,5.34,0,0,0-1.508-1.124.3.3,0,0,1-.153-.4.3.3,0,0,1,.4-.154A5.848,5.848,0,0,1,199,212.078a4.714,4.714,0,0,1,1.277,4.058c-.295,1.976-2.755,4.783-2.86,4.9A.3.3,0,0,1,197.193,221.14Z" fill="#fcf8f0"/>
                </g>
              </g>
              <path id="Контур_66" data-name="Контур 66" d="M197.193,221.14a.3.3,0,0,1-.3-.3v-9.726a.3.3,0,1,1,.6,0v9.726A.3.3,0,0,1,197.193,221.14Z" fill="#fcf8f0"/>
            </g>
            <ellipse id="Эллипс_7" data-name="Эллипс 7" cx="0.746" cy="0.752" rx="0.746" ry="0.752" transform="matrix(0.259, -0.966, 0.966, 0.259, 203.082, 216.638)" fill="#fcf8f0"/>
            <ellipse id="Эллипс_8" data-name="Эллипс 8" cx="0.746" cy="0.752" rx="0.746" ry="0.752" transform="matrix(0.259, -0.966, 0.966, 0.259, 215.62, 209.342)" fill="#fcf8f0"/>
          </g>
        </g>
        <g id="Сгруппировать_176" data-name="Сгруппировать 176">
          <g id="Сгруппировать_170" data-name="Сгруппировать 170">
            <g id="Сгруппировать_169" data-name="Сгруппировать 169">
              <g id="Сгруппировать_168" data-name="Сгруппировать 168">
                <g id="Сгруппировать_166" data-name="Сгруппировать 166">
                  <path id="Контур_67" data-name="Контур 67" d="M220.622,205.9a6.261,6.261,0,0,1-2.2-.32,4.678,4.678,0,0,1-2.849-3.144,5.942,5.942,0,0,1-.227-2.094.3.3,0,1,1,.6.064,5.423,5.423,0,0,0,.212,1.878,4.039,4.039,0,0,0,2.486,2.73c1.679.665,5.264-.067,5.3-.075a.3.3,0,0,1,.122.595A19.194,19.194,0,0,1,220.622,205.9Z" fill="#fcf8f0"/>
                </g>
                <g id="Сгруппировать_167" data-name="Сгруппировать 167">
                  <path id="Контур_68" data-name="Контур 68" d="M224,205.542a.3.3,0,0,1-.286-.208c-.012-.035-1.175-3.53-2.586-4.663a4,4,0,0,0-3.589-.8,5.322,5.322,0,0,0-1.72.754.3.3,0,0,1-.421-.067.3.3,0,0,1,.066-.424,5.831,5.831,0,0,1,1.913-.849,4.627,4.627,0,0,1,4.126.915c1.551,1.245,2.733,4.8,2.782,4.947a.3.3,0,0,1-.191.384A.3.3,0,0,1,224,205.542Z" fill="#fcf8f0"/>
                </g>
              </g>
              <path id="Контур_69" data-name="Контур 69" d="M224,205.542a.3.3,0,0,1-.15-.041l-8.358-4.863a.3.3,0,0,1-.11-.415.3.3,0,0,1,.411-.111l8.357,4.863a.3.3,0,0,1,.11.415A.3.3,0,0,1,224,205.542Z" fill="#fcf8f0"/>
            </g>
            <ellipse id="Эллипс_9" data-name="Эллипс 9" cx="0.746" cy="0.752" rx="0.746" ry="0.752" transform="translate(222.481 197.557) rotate(-80.783)" fill="#fcf8f0"/>
            <ellipse id="Эллипс_10" data-name="Эллипс 10" cx="0.746" cy="0.752" rx="0.746" ry="0.752" transform="translate(222.481 182.966) rotate(-80.783)" fill="#fcf8f0"/>
          </g>
          <g id="Сгруппировать_175" data-name="Сгруппировать 175">
            <g id="Сгруппировать_174" data-name="Сгруппировать 174">
              <g id="Сгруппировать_173" data-name="Сгруппировать 173">
                <g id="Сгруппировать_171" data-name="Сгруппировать 171">
                  <path id="Контур_70" data-name="Контур 70" d="M218.572,180.146a5.048,5.048,0,0,1-1.194-.147,5.831,5.831,0,0,1-1.913-.849.305.305,0,0,1-.066-.424.3.3,0,0,1,.421-.067,5.322,5.322,0,0,0,1.719.754,4,4,0,0,0,3.589-.8,7.9,7.9,0,0,0,1.818-2.744,20.521,20.521,0,0,0,.767-1.919.3.3,0,0,1,.381-.193.3.3,0,0,1,.191.384c-.05.151-1.232,3.7-2.782,4.947A4.613,4.613,0,0,1,218.572,180.146Z" fill="#fcf8f0"/>
                </g>
                <g id="Сгруппировать_172" data-name="Сгруппировать 172">
                  <path id="Контур_71" data-name="Контур 71" d="M215.643,179.209a.3.3,0,0,1-.3-.271,5.942,5.942,0,0,1,.227-2.094,4.678,4.678,0,0,1,2.849-3.144c1.845-.731,5.488.013,5.642.045a.3.3,0,0,1-.122.595c-.036-.007-3.621-.739-5.3-.075a4.04,4.04,0,0,0-2.491,2.75,5.367,5.367,0,0,0-.206,1.857.3.3,0,0,1-.267.334Z" fill="#fcf8f0"/>
                </g>
              </g>
              <path id="Контур_72" data-name="Контур 72" d="M215.643,179.209a.3.3,0,0,1-.261-.152.3.3,0,0,1,.11-.415l8.358-4.863a.3.3,0,0,1,.411.111.3.3,0,0,1-.11.415l-8.357,4.863A.3.3,0,0,1,215.643,179.209Z" fill="#fcf8f0"/>
            </g>
            <ellipse id="Эллипс_11" data-name="Эллипс 11" cx="0.746" cy="0.752" rx="0.746" ry="0.752" transform="translate(215.788 169.718)" fill="#fcf8f0"/>
            <path id="Контур_73" data-name="Контур 73" d="M204.642,163.55a.743.743,0,0,1-1.019.275.755.755,0,0,1-.273-1.027.743.743,0,0,1,1.019-.275A.755.755,0,0,1,204.642,163.55Z" fill="#fcf8f0"/>
          </g>
        </g>
      </g>
    </g>
    <path id="Color_Overlay" data-name="Color Overlay" d="M90.014,96h-.052l-.018,0h0l-.007,0h-.008l-.006,0-.007,0-.008,0-.005,0-.008,0h0l-.027-.012h0l-.008,0,0,0-.014-.009h0l-.006,0,0,0-.006-.005,0,0a.334.334,0,0,1-.044-.043c-.167-.19-2.564-2.948-2.854-4.9a4.712,4.712,0,0,1,1.277-4.058,5.9,5.9,0,0,1,1.67-1.238.314.314,0,0,1,.13-.033h.018a.408.408,0,0,1,.057.007h0l.008,0,.007,0,.006,0,.008,0,.006,0,.006,0,.008,0h0a5.867,5.867,0,0,1,1.686,1.246A4.714,4.714,0,0,1,93.084,91c-.29,1.947-2.685,4.7-2.853,4.894l-.009.011h0a.308.308,0,0,1-.055.047h0l-.007,0h0l0,0h0l0,0H90.14l-.016.008,0,0-.005,0-.007,0h0l-.018.006-.012,0h0l-.008,0h-.012l-.017,0h-.022Zm.287-1.143a10.714,10.714,0,0,0,2.188-3.95,4.072,4.072,0,0,0-1.1-3.535,5.537,5.537,0,0,0-1.084-.887Zm-1.687-7.485a4.071,4.071,0,0,0-1.1,3.535,10.719,10.719,0,0,0,2.187,3.95V86.484A5.537,5.537,0,0,0,88.615,87.371Zm8,4.321a.749.749,0,1,1,.2.026A.777.777,0,0,1,96.616,91.692Zm-14.164-.726a.746.746,0,1,1,.745.751A.748.748,0,0,1,82.452,90.966Zm22.251-.2h-.045a.6.6,0,0,1-.136-.023.3.3,0,0,1-.038-.012,63.229,63.229,0,0,1-5.949-2.417,41.658,41.658,0,0,1-4.892-2.655,16.69,16.69,0,0,1-3.853-3.239,21.265,21.265,0,0,1-5.95,4.347.277.277,0,0,1-.023.022.3.3,0,0,1-.148.069q-1.094.581-2.337,1.163c-.495.231-.979.449-1.444.652l-.009.008a.3.3,0,0,1-.171.07c-1.664.718-3.065,1.238-3.784,1.5a.625.625,0,0,1-.487.506.607.607,0,0,1-.126.013.624.624,0,0,1-.608-.5c-.005-.029-.589-2.9-.9-6.411a42.424,42.424,0,0,1-.164-5.6,17.606,17.606,0,0,1,.75-4.675c-2.419-.495-5.484-2.048-9.12-4.625a63.583,63.583,0,0,1-5.046-3.98.608.608,0,0,1-.065-.063.63.63,0,0,1-.081-.716l.007-.013h0s0-.007.006-.012l0,0,.005-.009,0,0,0-.008.005-.007,0,0,.008-.011h0l.034-.041a.682.682,0,0,1,.068-.067,63.782,63.782,0,0,1,5.043-3.976c3.636-2.577,6.7-4.131,9.119-4.626a17.645,17.645,0,0,1-.749-4.674,42.424,42.424,0,0,1,.164-5.6c.3-3.4.86-6.215.9-6.4a.181.181,0,0,1,0-.023h0a.066.066,0,0,0,0-.013l0-.01s0,0,0,0a.594.594,0,0,1,.042-.112,0,0,0,0,1,0,0l0-.007,0,0,0-.005,0-.007v0a.624.624,0,0,1,.3-.268.61.61,0,0,1,.2-.049H75.3a.618.618,0,0,1,.185.023l.033.011a63.308,63.308,0,0,1,5.952,2.417,41.843,41.843,0,0,1,4.892,2.656A17.406,17.406,0,0,1,90,46.331a17.406,17.406,0,0,1,3.642-2.992,41.787,41.787,0,0,1,4.892-2.656,63.32,63.32,0,0,1,5.949-2.416l.036-.012a.612.612,0,0,1,.184-.023h.012a.619.619,0,0,1,.363.137h0l.007.006,0,0,.005.005,0,0,0,0,.005.005,0,0,.006.006,0,0,.008.008h0l.008.008h0a.66.66,0,0,1,.05.06l0,0,.005.007,0,0,0,.005,0,.006,0,0,.005.008v0a.634.634,0,0,1,.073.167l0,.005s0,.005,0,.008a.271.271,0,0,1,.008.037c.038.187.6,3,.9,6.4a42.424,42.424,0,0,1,.164,5.6,17.645,17.645,0,0,1-.749,4.674c2.419.495,5.484,2.049,9.12,4.626a63.913,63.913,0,0,1,5.042,3.976.682.682,0,0,1,.068.067l.033.04,0,0,.005.007.005.007,0,.005a.055.055,0,0,1,.006.009l0,0,.008.013a.612.612,0,0,1,.075.184h0l0,.013v0l0,.013v0a.061.061,0,0,1,0,.013v0s0,.008,0,.012v0s0,.007,0,.01v.005s0,.007,0,.011v0s0,.008,0,.013v0s0,.007,0,.011v.054s0,.008,0,.012h0c0,.005,0,.009,0,.014h0s0,.009,0,.014v0a.069.069,0,0,1,0,.013.621.621,0,0,1-.12.294l0,0,0,.006-.023.028a.628.628,0,0,1-.066.064,63.882,63.882,0,0,1-5.045,3.979c-3.636,2.577-6.7,4.13-9.121,4.625a17.606,17.606,0,0,1,.75,4.675,42.424,42.424,0,0,1-.164,5.6c-.3,3.411-.863,6.223-.9,6.4l0,.007v0a0,0,0,0,1,0,0,.641.641,0,0,1-.018.068.622.622,0,0,1-.4.4h0l-.01,0h0l-.007,0h-.005l-.007,0-.005,0h-.005l-.029.006h0l-.007,0H104.7ZM75.978,89.583c.709-.259,1.856-.694,3.2-1.27a7.229,7.229,0,0,1-1.258-2.129Zm25.042-1.533c1.1.468,2.064.841,2.753,1.1l-1.7-2.963A6.678,6.678,0,0,1,101.02,88.051Zm3.275.794c.124-.73.285-1.756.434-2.953a9.2,9.2,0,0,1-1.151.079,4.772,4.772,0,0,1-.98-.089Zm-28.589,0,1.7-2.964a4.718,4.718,0,0,1-.981.09,9.2,9.2,0,0,1-1.151-.079C75.421,87.089,75.582,88.115,75.706,88.844Zm2.739-3.567,0,0c-.011.02-.353.719,1.317,2.782,1.061-.465,2.22-1.008,3.374-1.613a11.9,11.9,0,0,1-2.543-4.374c-.035-.142-.062-.275-.082-.4Zm20.965-3.2A11.442,11.442,0,0,1,97.074,86.2c1.156.6,2.315,1.144,3.373,1.606,1.448-1.879,1.115-2.515,1.111-2.522l0-.005-2.063-3.6C99.473,81.8,99.446,81.935,99.41,82.077ZM81.205,80.459l-.005.01c-.1.168-.833,1.74,2.477,5.692a31.2,31.2,0,0,0,3-1.832c-2.688-3.527-3.316-6.044-3.314-7.63Zm12.313,3.614a30.985,30.985,0,0,0,3.013,1.836c3.072-3.768,2.364-5.276,2.269-5.44l-.005-.01L96.641,76.7C96.643,78.246,96.045,80.68,93.518,84.074Zm-18.32,1.2c2.338.323,2.719-.285,2.723-.292a.039.039,0,0,0,0-.006l2.063-3.6q-.177.069-.386.13a7.669,7.669,0,0,1-2.1.255,16.6,16.6,0,0,1-2.607-.232C74.95,82.832,75.065,84.115,75.2,85.271Zm26.886-.286c.043.059.5.593,2.719.286.132-1.156.248-2.437.307-3.747a16.59,16.59,0,0,1-2.607.232,7.673,7.673,0,0,1-2.1-.255c-.14-.041-.268-.084-.385-.129Zm-17.771-9.95c-.2.359-1.526,3.208,2.851,8.941a13.514,13.514,0,0,0,2.247-2.041,14.088,14.088,0,0,1-2.69-6.2,14.556,14.556,0,0,1,.1-5.069Zm8.393-5.064a14.46,14.46,0,0,1,.257,5.708,13.663,13.663,0,0,1-2.387,5.729c.028.037.057.074.085.11a12.6,12.6,0,0,0,2.367,2.205c4.149-5.568,2.854-8.337,2.658-8.688l-3.04-5.307C92.667,69.807,92.687,69.888,92.706,69.97ZM74.867,80.9c4.774.8,5.716-.574,5.81-.74l.006-.011,2.154-3.759a10.217,10.217,0,0,1-5.214,1.137,22.311,22.311,0,0,1-2.686-.174A31.682,31.682,0,0,0,74.867,80.9Zm24.461-.729c.125.205,1.12,1.51,5.8.729a31.678,31.678,0,0,0-.071-3.547,22.311,22.311,0,0,1-2.686.174A10.215,10.215,0,0,1,97.163,76.4ZM89.41,66.787a17.059,17.059,0,0,0-1.229,3.442,13.515,13.515,0,0,0-.229,5.324A12.745,12.745,0,0,0,90.2,80.895a13.031,13.031,0,0,0,2.17-5.3,13.848,13.848,0,0,0-.24-5.459,16.848,16.848,0,0,0-.671-2.15A18.5,18.5,0,0,1,90,65.84C89.839,66.118,89.643,66.438,89.41,66.787ZM96.2,74.708l.006.011c.174.3,1.868,2.881,8.8,2.034a13.151,13.151,0,0,0-.643-2.985,15.055,15.055,0,0,1-1.536.079,13.439,13.439,0,0,1-4.813-.87A14.327,14.327,0,0,1,93.7,70.358ZM75,76.753c6.843.835,8.582-1.664,8.794-2.021L86.3,70.357a14.345,14.345,0,0,1-4.307,2.619,13.439,13.439,0,0,1-4.813.87,15.055,15.055,0,0,1-1.536-.079A13.15,13.15,0,0,0,75,76.753Zm19.017-7.8a13.3,13.3,0,0,0,4.46,2.861,12.418,12.418,0,0,0,5.372.742,12.6,12.6,0,0,0-3.324-4.317,13.277,13.277,0,0,0-4.689-2.462,16.745,16.745,0,0,0-3.569-.648c-.45.031-.851.041-1.186.041h-.024A17.222,17.222,0,0,0,94.014,68.953Zm-9.848-3.176a13.285,13.285,0,0,0-4.689,2.462,12.6,12.6,0,0,0-3.324,4.317,12.418,12.418,0,0,0,5.372-.742,13.3,13.3,0,0,0,4.46-2.861,16.865,16.865,0,0,0,2.343-2.794c.184-.378.362-.709.52-.988-.319,0-.694-.013-1.111-.041A16.767,16.767,0,0,0,84.166,65.777Zm17.123,1.477a13.93,13.93,0,0,1,3.855,5.146,12.933,12.933,0,0,0,2.887-.932c-2.739-6.473-5.8-6.664-6.149-6.664h-5A14.3,14.3,0,0,1,101.29,67.253Zm-29.32,4.214a12.956,12.956,0,0,0,2.886.932,13.942,13.942,0,0,1,3.856-5.146,14.3,14.3,0,0,1,4.4-2.45h-5C77.769,64.8,74.707,64.994,71.969,71.467Zm36.61-.25a31.008,31.008,0,0,0,3.084-1.712c-1.7-4.565-3.352-4.7-3.541-4.7H103.8C105.133,65.575,106.927,67.314,108.58,71.217ZM68.337,69.505a30.9,30.9,0,0,0,3.083,1.711c1.653-3.9,3.446-5.641,4.776-6.412H71.878C71.689,64.8,70.039,64.94,68.337,69.505Zm41.473-4.43a11.428,11.428,0,0,1,2.373,4.1c1.1-.707,2.14-1.448,3.067-2.141-.892-2.2-1.606-2.231-1.613-2.231h-4.131C109.6,64.884,109.706,64.974,109.81,65.075ZM64.751,67.034c.926.693,1.971,1.435,3.066,2.141a11.431,11.431,0,0,1,2.373-4.1c.1-.1.205-.192.3-.272H66.362C66.355,64.8,65.642,64.831,64.751,67.034Zm51-.374c.954-.729,1.756-1.382,2.321-1.856h-3.4A6.657,6.657,0,0,1,115.747,66.659Zm-51.494,0A6.7,6.7,0,0,1,65.327,64.8H61.934C62.5,65.277,63.3,65.93,64.253,66.659Zm50.42-2.462h3.395c-.565-.473-1.367-1.127-2.32-1.855A6.709,6.709,0,0,1,114.673,64.2Zm-4.863-.272c-.1.1-.206.192-.3.272h4.132c.007,0,.721-.027,1.612-2.23-.926-.693-1.971-1.435-3.066-2.141A11.439,11.439,0,0,1,109.81,63.924ZM103.8,64.2h4.319c.19,0,1.839-.137,3.541-4.7a31.017,31.017,0,0,0-3.084-1.711C106.926,61.686,105.133,63.425,103.8,64.2Zm-2.514-2.45a14.3,14.3,0,0,1-4.4,2.45h5c.348,0,3.41-.192,6.149-6.664a12.916,12.916,0,0,0-2.887-.932A13.938,13.938,0,0,1,101.29,61.746Zm-29.32-4.215C74.707,64,77.769,64.2,78.117,64.2h5a14.3,14.3,0,0,1-4.4-2.45A13.95,13.95,0,0,1,74.856,56.6,12.936,12.936,0,0,0,71.969,57.532Zm-3.632,1.962c1.7,4.566,3.352,4.7,3.541,4.7H76.2c-1.33-.771-3.124-2.511-4.776-6.413A30.9,30.9,0,0,0,68.337,59.494Zm-3.586,2.471c.892,2.2,1.6,2.231,1.612,2.231h4.132c-.1-.08-.2-.17-.3-.272a11.436,11.436,0,0,1-2.373-4.1C66.721,60.53,65.677,61.272,64.751,61.965ZM61.933,64.2h3.395a6.7,6.7,0,0,1-1.075-1.856C63.3,63.069,62.5,63.723,61.933,64.2Zm14.221-7.753A12.61,12.61,0,0,0,79.5,60.777a13.28,13.28,0,0,0,4.711,2.458,16.737,16.737,0,0,0,3.521.636c.42-.029.8-.04,1.12-.041-.158-.279-.336-.611-.52-.988a16.909,16.909,0,0,0-2.343-2.795,13.3,13.3,0,0,0-4.46-2.862,12.218,12.218,0,0,0-4.351-.779Q76.669,56.406,76.154,56.444Zm22.321.742a13.3,13.3,0,0,0-4.46,2.862,16.9,16.9,0,0,0-2.342,2.793c-.185.378-.362.71-.52.99.319,0,.691.013,1.107.041a16.732,16.732,0,0,0,3.575-.648,13.275,13.275,0,0,0,4.689-2.461,12.613,12.613,0,0,0,3.324-4.317q-.516-.038-1.021-.038A12.218,12.218,0,0,0,98.474,57.185ZM87.952,53.447a13.516,13.516,0,0,0,.229,5.323,17.1,17.1,0,0,0,1.229,3.443c.232.349.428.67.59.948.161-.278.357-.6.59-.948a17.055,17.055,0,0,0,1.23-3.443,13.532,13.532,0,0,0,.229-5.323A12.68,12.68,0,0,0,90,48.387,12.681,12.681,0,0,0,87.952,53.447Zm-5.962,2.577A14.324,14.324,0,0,1,86.3,58.641l-2.515-4.39c-.252-.41-2.038-2.829-8.784-2.005a13.15,13.15,0,0,0,.643,2.985,15.3,15.3,0,0,1,1.535-.079A13.441,13.441,0,0,1,81.989,56.023Zm14.222-1.757L93.705,58.64a14.3,14.3,0,0,1,4.306-2.617,13.754,13.754,0,0,1,6.35-.792A13.1,13.1,0,0,0,105,52.246a21.662,21.662,0,0,0-2.611-.169C97.7,52.077,96.394,53.959,96.211,54.266Zm-11.9-.3,2.506,4.374a14.561,14.561,0,0,1-.1-5.07,14.013,14.013,0,0,1,2.495-5.938,13.05,13.05,0,0,0-2.245-2.053C82.823,50.846,84.118,53.614,84.313,53.966Zm6.471-6.634a14,14,0,0,1,2.495,5.938,14.53,14.53,0,0,1-.1,5.068l2.5-4.371c.194-.349,1.493-3.118-2.658-8.688A13.049,13.049,0,0,0,90.784,47.332Zm8.551,1.482L97.163,52.6c1.327-.776,3.719-1.471,7.9-.962a31.675,31.675,0,0,0,.072-3.547,16.2,16.2,0,0,0-2.648-.247C100.087,47.848,99.448,48.635,99.335,48.814Zm-16.5,3.79-2.164-3.778c-.119-.2-1.1-1.516-5.806-.731a31.682,31.682,0,0,0,.071,3.547,22.347,22.347,0,0,1,2.687-.174A10.215,10.215,0,0,1,82.838,52.6ZM81.2,48.531l.005.011L83.36,52.3c0-1.547.595-3.982,3.121-7.376A31.02,31.02,0,0,0,83.47,43.09C80.4,46.858,81.105,48.366,81.2,48.531Zm12.319-3.605c2.526,3.394,3.124,5.828,3.122,7.375l2.154-3.759.005-.011c.1-.165.8-1.673-2.269-5.441A31.218,31.218,0,0,0,93.519,44.925ZM79.6,47.5c.14.041.268.084.385.13l-2.062-3.6,0-.005c0-.006-.382-.616-2.723-.292-.132,1.156-.247,2.437-.307,3.747a16.6,16.6,0,0,1,2.606-.233A7.711,7.711,0,0,1,79.6,47.5Zm22.483-3.482-2.069,3.611c.118-.045.246-.089.385-.129a11.252,11.252,0,0,1,4.71-.022c-.058-1.31-.174-2.591-.306-3.747a9.085,9.085,0,0,0-1.229-.095C102.4,43.635,102.117,43.969,102.083,44.015ZM97.075,42.8a11.44,11.44,0,0,1,2.335,4.122c.035.142.062.275.082.4l2.063-3.6,0-.005c0-.006.338-.643-1.11-2.523C99.389,41.657,98.23,42.2,97.075,42.8Zm-18.633.917,0,0,2.063,3.6c.02-.126.047-.259.082-.4A11.438,11.438,0,0,1,82.925,42.8c-1.154-.6-2.314-1.144-3.372-1.606C78.1,43.075,78.438,43.711,78.442,43.718Zm24.155-.6a6.574,6.574,0,0,1,2.131-.011c-.148-1.2-.31-2.223-.434-2.952Zm-25.195,0-1.7-2.963c-.124.729-.285,1.756-.434,2.952a9.177,9.177,0,0,1,1.15-.079A4.765,4.765,0,0,1,77.4,43.118Zm.522-.3a6.678,6.678,0,0,1,1.056-1.866c-1.1-.468-2.065-.841-2.753-1.1Zm23.095-1.866a6.676,6.676,0,0,1,1.056,1.865l1.7-2.962C103.083,40.109,102.121,40.481,101.02,40.949ZM109.154,84.4a.749.749,0,1,1,.2.026A.777.777,0,0,1,109.154,84.4ZM69.913,83.67a.746.746,0,1,1,.746.751A.749.749,0,0,1,69.913,83.67Zm41.314-3.23a4.678,4.678,0,0,1-2.848-3.144,5.969,5.969,0,0,1-.228-2.093l0-.019a0,0,0,0,1,0,0,.032.032,0,0,1,0-.009s0-.005,0-.007l0,0a.262.262,0,0,1,.014-.045v0l0-.009,0,0,0-.007,0-.005,0,0a.285.285,0,0,1,.049-.064h0a.307.307,0,0,1,.047-.038,5.878,5.878,0,0,1,1.9-.84,4.63,4.63,0,0,1,4.127.914c1.519,1.22,2.686,4.656,2.777,4.934l.008.024s0,0,0,0a.31.31,0,0,1,.006.135s0,0,0,0a.253.253,0,0,1-.007.028h0v0h0v0l0,.008V80.2l0,.01h0a.106.106,0,0,1,0,.01l0,.005a.032.032,0,0,1,0,.008v0a0,0,0,0,0,0,0l0,.008h0l-.007.012a.223.223,0,0,1-.025.032l0,.005,0,0a.286.286,0,0,1-.076.06h0l-.009,0a.239.239,0,0,1-.038.016l-.01,0-.011,0h-.008l-.009,0a19.2,19.2,0,0,1-3.435.365A6.251,6.251,0,0,1,111.227,80.44Zm-2.265-3.3a4.039,4.039,0,0,0,2.486,2.731,10.506,10.506,0,0,0,4.488.066l-7.195-4.186A5.566,5.566,0,0,0,108.961,77.144Zm1.386-2.418a5.441,5.441,0,0,0-1.305.5l7.195,4.187a10.705,10.705,0,0,0-2.3-3.884,3.987,3.987,0,0,0-2.544-.932A4.47,4.47,0,0,0,110.347,74.726ZM63.142,80.4a.276.276,0,0,1-.045-.012.351.351,0,0,1-.042-.018l-.006,0,0,0a.29.29,0,0,1-.1-.085l-.016-.024h0l0,0,0-.007v0l0,0a.037.037,0,0,1,0-.009l0,0h0a.106.106,0,0,1,0-.01V80.21a.057.057,0,0,0,0-.008V80.2h0l0-.007v0s0,0,0,0a.028.028,0,0,1,0-.007,0,0,0,0,1,0,0,0,0,0,0,0,0,0s0,0,0-.005v0s0,0,0,0,0-.009,0-.013h0a.008.008,0,0,0,0,0v0a.283.283,0,0,1,.006-.11,0,0,0,0,1,0,0s0-.006,0-.009l0-.009V80c.07-.213,1.245-3.708,2.781-4.942a4.628,4.628,0,0,1,4.126-.914,5.851,5.851,0,0,1,1.906.844h0l0,0,.006,0a.3.3,0,0,1,.119.211,5.944,5.944,0,0,1-.228,2.093,4.676,4.676,0,0,1-2.849,3.144,6.251,6.251,0,0,1-2.2.32A19.271,19.271,0,0,1,63.142,80.4Zm.923-.457a10.506,10.506,0,0,0,4.488-.066,4.038,4.038,0,0,0,2.491-2.75,5.607,5.607,0,0,0,.216-1.37Zm2-4.41a7.885,7.885,0,0,0-1.819,2.744c-.193.421-.357.818-.482,1.141l7.2-4.188a5.441,5.441,0,0,0-1.305-.5,4.481,4.481,0,0,0-1.045-.128A3.984,3.984,0,0,0,66.064,75.531Zm49.965-2.993a.751.751,0,1,1,.122.01A.811.811,0,0,1,116.03,72.537Zm-52.287,0a.75.75,0,1,1,.122.01A.811.811,0,0,1,63.743,72.537ZM116.03,57.947a.751.751,0,1,1,.122.01A.811.811,0,0,1,116.03,57.947Zm-52.287,0a.75.75,0,1,1,.122.01A.811.811,0,0,1,63.743,57.947Zm46.443-3.088a5.847,5.847,0,0,1-1.907-.845l-.014-.01,0,0-.008-.006h0a.2.2,0,0,1-.031-.032h0a.366.366,0,0,1-.03-.043.291.291,0,0,1-.032-.08s0,0,0,0v0a.2.2,0,0,1-.005-.033,5.968,5.968,0,0,1,.228-2.093,4.678,4.678,0,0,1,2.848-3.144c1.809-.716,5.341-.016,5.629.042a.294.294,0,0,1,.049.012l.005,0,0,0h0l.015.006,0,0h0l.006,0h0l.006,0,.006,0h0a.3.3,0,0,1,.088.077h0l.012.016.007.012h0l.006.012a.305.305,0,0,1,.015.25c-.092.277-1.258,3.713-2.777,4.934a4.614,4.614,0,0,1-2.932,1.062A5.064,5.064,0,0,1,110.185,54.859Zm-1.144-1.088a5.45,5.45,0,0,0,1.306.5,4,4,0,0,0,3.589-.8,7.907,7.907,0,0,0,1.818-2.744c.194-.42.357-.818.483-1.141Zm2.406-4.646a4.037,4.037,0,0,0-2.491,2.75,5.569,5.569,0,0,0-.216,1.37l7.2-4.186a17.56,17.56,0,0,0-2.526-.213A5.618,5.618,0,0,0,111.447,49.125ZM65.689,53.943c-1.551-1.245-2.733-4.8-2.783-4.946l0,0s0,0,0-.006v0a.028.028,0,0,0,0-.007,0,0,0,0,1,0,0,.274.274,0,0,1-.008-.066h0a.022.022,0,0,1,0-.011v-.01a.311.311,0,0,1,.034-.128l.006-.012.009-.014h0l.011-.015h0a.314.314,0,0,1,.088-.077h0l.01-.005h0l.01-.005h0l.006,0h0l.012-.005h0l0,0,.005,0a.317.317,0,0,1,.049-.012c.289-.059,3.82-.759,5.629-.042A4.676,4.676,0,0,1,71.622,51.7,5.943,5.943,0,0,1,71.85,53.8a.2.2,0,0,1-.005.033v0s0,0,0,.005a.324.324,0,0,1-.031.078.367.367,0,0,1-.03.043h0a.251.251,0,0,1-.041.041l0,0-.016.012a5.851,5.851,0,0,1-1.906.844,5.059,5.059,0,0,1-1.194.147A4.61,4.61,0,0,1,65.689,53.943Zm.375-.474a4,4,0,0,0,3.609.8,5.471,5.471,0,0,0,1.285-.5l-7.2-4.187A10.7,10.7,0,0,0,66.064,53.469Zm-2-4.41,7.2,4.186a5.585,5.585,0,0,0-.221-1.39,4.038,4.038,0,0,0-2.486-2.73,5.6,5.6,0,0,0-1.962-.279A17.549,17.549,0,0,0,64.065,49.059Zm6.407-3a.749.749,0,1,1,.2.026A.779.779,0,0,1,70.472,46.056Zm38.123-.726a.746.746,0,1,1,.746.751A.749.749,0,0,1,108.595,45.329ZM90,43.333h-.016a.3.3,0,0,1-.13-.037,5.9,5.9,0,0,1-1.661-1.234A4.712,4.712,0,0,1,86.916,38c.287-1.926,2.632-4.642,2.847-4.887A.3.3,0,0,1,90,33H90a.3.3,0,0,1,.235.117c.216.246,2.56,2.961,2.847,4.887a4.714,4.714,0,0,1-1.276,4.058A5.9,5.9,0,0,1,90.14,43.3a.294.294,0,0,1-.123.034H90Zm.3-.817a5.513,5.513,0,0,0,1.084-.888,4.07,4.07,0,0,0,1.1-3.534,10.714,10.714,0,0,0-2.188-3.95Zm-2.79-4.423a4.071,4.071,0,0,0,1.118,3.55,5.453,5.453,0,0,0,1.069.873V34.143A10.719,10.719,0,0,0,87.512,38.093Zm-4.5.667a.749.749,0,1,1,.2.026A.779.779,0,0,1,83.01,38.76Zm13.421-.076a.754.754,0,0,1-.274-1.027.743.743,0,0,1,1.019-.275.755.755,0,0,1,.274,1.027.744.744,0,0,1-.646.375A.736.736,0,0,1,96.431,38.685Z" fill="#7492ec"/>
  </g>
</svg>
